# File produced by Open Asset Import Library (http://www.assimp.sf.net)
# (assimp v4.1.3154142419)

mtllib default_z.mtl

# 8 vertex positions
v  -0.1408694684505463 0.1000190600752831 0.4876692891120911
v  0.1408972591161728 0.0999811589717865 0.5123206973075867
v  0.01233961433172226 0.0999913290143013 0.3591116070747375
v  -0.01233963016420603 -0.09999134391546249 0.6408884525299072
v  0.1408694833517075 -0.1000190749764442 0.5123307108879089
v  -0.01231183856725693 0.1000089272856712 0.6408783793449402
v  -0.140897274017334 -0.09998114407062531 0.4876793622970581
v  0.01231182646006346 -0.10000891238451 0.3591216504573822

# 0 UV coordinates

# 6 vertex normals
vn 0.01817059889435768 0.9996064305305481 0.02143910713493824
vn 0.6425316333770752 -0.02810310758650303 0.7657454609870911
vn -0.7660455107688904 0.0001387553638778627 0.6427884697914124
vn -0.01817059889435768 -0.9996063709259033 -0.02143910527229309
vn 0.7660455107688904 -0.0001387553638778627 -0.6427884697914124
vn -0.6425315737724304 0.02810310758650303 -0.7657454609870911

# Mesh '' with 12 faces
usemtl $Material_0
f  1//1 2//1 3//1
f  2//2 4//2 5//2
f  6//3 7//3 4//3
f  8//4 4//4 7//4
f  3//5 5//5 8//5
f  1//6 8//6 7//6
f  1//1 6//1 2//1
f  2//2 6//2 4//2
f  6//3 1//3 7//3
f  8//4 5//4 4//4
f  3//5 2//5 5//5
f  1//6 3//6 8//6

