# File produced by Open Asset Import Library (http://www.assimp.sf.net)
# (assimp v4.1.3154142419)

mtllib mirror 100.mtl

# 60 vertex positions
v  -0.1446175575256348 -0.08169940859079361 0.1977410316467285
v  0.02282460778951645 -0.0671103298664093 0.1966072916984558
v  0.02902165800333023 0.02192872390151024 0.1682353913784027
v  -0.08277750015258789 -0.009846280328929424 0.1745089888572693
v  -0.1540513038635254 -0.03329546004533768 0.1099508106708527
v  0.05635073035955429 0.05626865476369858 0.1104433611035347
v  0.05475181341171265 -0.06405819952487946 0.1101154014468193
v  -0.1810635030269623 -0.08369232714176178 0.1101118475198746
v  0.02587681263685226 -0.03092539310455322 0.07370816916227341
v  0.1068109720945358 0.001152642071247101 0.06882137805223465
v  0.1108878031373024 -0.02575625851750374 0.1101644858717918
v  0.01281380653381348 0.0509466677904129 0.1078862175345421
v  -0.01021220535039902 0.01209790632128716 0.1050301566720009
v  0.1374277770519257 0.08152066916227341 0.1076774224638939
v  0.005973882973194122 -0.02412748336791992 0.0683741420507431
v  0.04700590670108795 -0.04682032018899918 0.07758841663599014
v  -0.0004240944981575012 -0.06941443681716919 0.06319322437047958
v  -0.1509551554918289 -0.08298547565937042 0.06597696244716644
v  -0.143313080072403 -0.09394224733114243 0.08020687848329544
v  -0.1724643558263779 -0.1103596314787865 0.09742190688848495
v  -0.1791882216930389 -0.08545638620853424 0.09554190188646317
v  -0.1427982151508331 -0.09622254222631454 0.08094485104084015
v  -0.1611976325511932 -0.1011525392532349 0.1639809757471085
v  -0.1427984088659286 -0.09622254222631454 0.1814390569925308
v  0.09499295800924301 -0.06370119005441666 0.06453561037778854
v  0.1074210330843925 -0.06212938576936722 0.0614374503493309
v  0.1535076498985291 -0.1270181238651276 0.2435266673564911
v  -0.1712726503610611 -0.08347532153129578 0.1824448704719543
v  -0.1563423424959183 -0.04129824414849281 0.1609519124031067
v  0.1426966488361359 -0.1193871572613716 0.2461157441139221
v  -0.06641834229230881 0.01411594450473785 0.08703497797250748
v  -0.1602973937988281 -0.0407433994114399 0.1089788377285004
v  0.008001670241355896 0.05010568350553513 0.1089101210236549
v  -0.1068964451551437 -3.248732537031174e-05 0.1471279561519623
v  0.04941780120134354 -0.06490230560302734 0.1752964854240417
v  0.06995288282632828 0.02640468999743462 0.1485774219036102
v  -0.1457151025533676 -0.08177173882722855 0.06455296277999878
v  0.05481372028589249 -0.06490319222211838 0.1088482216000557
v  0.1677616536617279 0.1429387927055359 0.1075284853577614
v  0.1772178411483765 0.1548140048980713 0.0778425857424736
v  0.03585655242204666 0.05237267911434174 0.1391533315181732
v  0.03468573838472366 -0.07870230823755264 0.153341218829155
v  0.04865988343954086 -0.06630732864141464 0.08717828243970871
v  0.0396876260638237 -0.091595359146595 0.1760662794113159
v  0.01120969653129578 -0.08291155844926834 0.08094535768032074
v  0.02991463243961334 -0.0820402055978775 0.1709662675857544
v  -0.1677692830562592 -0.1093826815485954 0.1760670393705368
v  -0.171381413936615 -0.08477233350276947 0.1823828518390656
v  0.07652881741523743 0.02198169380426407 0.1119332984089851
v  0.0127469077706337 -0.08062328398227692 0.08020715415477753
v  -0.007061250507831573 0.001465830951929092 0.07276104390621185
v  -0.18155537545681 -0.08495353907346725 0.1079077422618866
v  0.01737593859434128 -0.09409121423959732 0.07033025473356247
v  0.0413806214928627 -0.06741207838058472 0.1856753528118134
v  0.1769507825374603 0.121333047747612 0.1130294427275658
v  -0.002118214964866638 -0.01461734063923359 0.1092831268906593
v  0.004655972123146057 -0.06990817189216614 0.06404216587543488
v  0.004655562341213226 -0.06990823894739151 0.1983533501625061
v  -0.13982854783535 -0.1069422513246536 0.1935199797153473
v  -0.1433132737874985 -0.0939423069357872 0.1821889877319336

# 0 UV coordinates

# 100 vertex normals
vn -0.02011073380708694 0.3048137128353119 0.9521998167037964
vn -0.04446359723806381 0.3417830467224121 0.9387266635894775
vn 0.00118730217218399 0.002709507942199707 -0.9999958276748657
vn 0.0002943053841590881 -0.003352537751197815 -0.9999946355819702
vn 0.2809168696403503 -0.7914612889289856 -0.5428398847579956
vn 0.02297413721680641 -0.08683684468269348 0.9959579110145569
vn 0.2572349309921265 0.07388757169246674 -0.963520348072052
vn -0.03259393572807312 0.03122328221797943 0.9989811182022095
vn 0.06373849511146545 -0.7738893628120422 -0.63010573387146
vn -0.2464160919189453 -0.6969732642173767 0.6734299063682556
vn -0.6923398375511169 -0.2383452355861664 -0.6810710430145264
vn -0.2588128447532654 0.9659277200698853 8.195638656616211e-08
vn 0.03323351591825485 -0.9387669563293457 -0.3429468870162964
vn -0.9408689737319946 0.3385969698429108 0.01086670160293579
vn -0.9589999914169312 0.07214914262294769 0.2740693092346191
vn -0.8751651048660278 0.4694521725177765 0.1170522570610046
vn -0.4683980345726013 0.867838978767395 0.165708065032959
vn -0.4049683213233948 0.6872649788856506 0.6030488014221191
vn 0.6183042526245117 0.08943755924701691 0.7808338403701782
vn 0.08470767736434937 -0.9963979721069336 -0.0040312260389328
vn -0.8914722204208374 0.440028965473175 -0.1079462766647339
vn -0.08383993804454803 0.04382120817899704 0.9955155253410339
vn -0.1600305736064911 0.7003958821296692 0.6955835223197937
vn -0.6365626454353333 -0.7224936485290527 -0.2697988450527191
vn -0.08610949665307999 0.9962859749794006 4.32133674621582e-07
vn -0.08139979094266891 0.9966551661491394 0.007267117500305176
vn -0.9818618893623352 -0.1670999526977539 0.08958354592323303
vn 0.07651561498641968 0.001700624823570251 -0.9970671534538269
vn 0.3839544951915741 -0.9188528656959534 -0.09104295074939728
vn -0.9659467339515686 0.1627265512943268 0.2011652588844299
vn -0.8253265619277954 0.5073933601379395 -0.2477671951055527
vn -0.9647897481918335 -0.2559050917625427 0.06077632308006287
vn -0.002004951238632202 -0.02325630933046341 0.9997277855873108
vn 0.07047748565673828 -0.574043333530426 0.815786600112915
vn 0.9925414323806763 -0.09819277375936508 0.07225072383880615
vn -0.6941438913345337 -0.7010892033576965 0.1632134765386581
vn 0.9253058433532715 -0.2782098054885864 -0.2576990723609924
vn -0.7304823398590088 0.3652263879776001 -0.5770664811134338
vn 0.6406528949737549 0.723091721534729 0.2582688331604004
vn 0.07751317322254181 -0.9969698786735535 -0.006567955017089844
vn -0.03468197584152222 -0.06442867964506149 -0.9973196983337402
vn 0.08297092467546463 -0.9965181946754456 -0.008241929113864899
vn 0.04945973679423332 -0.5795450210571289 0.8134382963180542
vn 0.08430789411067963 -0.996431827545166 -0.004040762782096863
vn 0.8563894629478455 0.5080022811889648 0.09236592054367065
vn 0.08651014417409897 -0.9956309199333191 -0.03514894843101501
vn 0.008738681674003601 -0.2473351955413818 -0.9688908457756042
vn -0.02975694835186005 0.4442458748817444 -0.8954108953475952
vn -0.0004172623157501221 -0.009120158851146698 0.9999586343765259
vn -0.8636285662651062 0.2975229322910309 0.4069719314575195
vn -0.1514308154582977 0.6119023561477661 -0.7763020992279053
vn 0.08453526347875595 -0.9964156150817871 -0.003244034945964813
vn -0.1120516881346703 0.3141190111637115 0.9427482485771179
vn 0.7871453762054443 0.4438233971595764 0.4282797574996948
vn 0.4988190531730652 0.8607510328292847 -0.1014285385608673
vn -0.449207603931427 0.5267488360404968 0.7216290831565857
vn -0.3760058283805847 0.561850368976593 0.736847460269928
vn -0.2672916650772095 0.8080081939697266 0.5250507593154907
vn -0.002951622009277344 0.006224349141120911 0.9999764561653137
vn -0.1221798360347748 0.1138659939169884 -0.9859549403190613
vn -0.08413718640804291 0.9964544773101807 5.960464477539062e-07
vn 0.2792676687240601 0.6297444105148315 0.7248669862747192
vn 0.3256183564662933 -0.3687370717525482 0.870635449886322
vn -0.06781396269798279 0.9976980090141296 6.854534149169922e-07
vn -0.08414708077907562 0.9964413642883301 0.004957854747772217
vn -0.5887895226478577 -0.8030795454978943 -0.0916004478931427
vn -0.3716000318527222 0.8746658563613892 -0.3112449645996094
vn -0.08373565971851349 0.9964880347251892 0.0006020665168762207
vn 0.4283754825592041 0.3897525370121002 0.8152225017547607
vn -0.08719288557767868 0.9961916208267212 -9.149312973022461e-06
vn 0.3960952460765839 0.2536318004131317 0.882485032081604
vn 0.9118304252624512 -0.2551071345806122 -0.321692168712616
vn 0.08503548055887222 -0.9963778853416443 0.0006635263562202454
vn 0.08530675619840622 -0.9963549375534058 -1.20699405670166e-06
vn 0.09135228395462036 -0.9793641567230225 0.1802818030118942
vn -0.6222856640815735 0.7771272659301758 0.09398996829986572
vn 0.5338528752326965 -0.8455775380134583 5.960464477539062e-08
vn 0.4906358420848846 -0.695533275604248 -0.5248908400535583
vn 0.9678476452827454 -0.1611531972885132 0.1931348741054535
vn 0.1281008422374725 -0.6025784611701965 0.7877117395401001
vn 0.4655275940895081 0.7697518467903137 0.4367683529853821
vn 0.02656109631061554 0.4785362482070923 -0.8776662945747375
vn -0.08862899243831635 0.2962642014026642 -0.9509851932525635
vn -0.4901182353496552 -0.2834715843200684 0.824274480342865
vn 0.08604056388139725 -0.9954869151115417 -0.04003844782710075
vn 0.4644248783588409 0.0140322744846344 -0.8855016231536865
vn -0.01918645203113556 0.116315096616745 -0.99302738904953
vn 0.9628257155418396 -0.149246945977211 0.2251496315002441
vn 0.4913211464881897 -0.4937149882316589 -0.7175301313400269
vn 0.09990569949150085 -0.9949350357055664 -0.01112895458936691
vn 0.9662529826164246 -0.246164858341217 0.07588416337966919
vn -0.01668521016836166 -0.6595095992088318 -0.7515111565589905
vn -0.3480428159236908 0.929465651512146 -0.1223115772008896
vn -0.005319166928529739 -0.8702556490898132 -0.4925719499588013
vn 0.4596842527389526 0.3787008821964264 0.8032910227775574
vn -0.03743487596511841 -0.8014012575149536 -0.596954882144928
vn -0.2534628212451935 0.1097006574273109 -0.9611049890518188
vn -0.4837223291397095 0.5580999255180359 -0.6741938591003418
vn -0.8933904767036438 0.4188843667507172 -0.1624492555856705
vn 0.4825741052627563 -0.8756718635559082 -0.01792982220649719

# Mesh '' with 100 faces
usemtl $Material_0
f  1//1 2//1 3//1
f  4//2 1//2 3//2
f  5//3 6//3 7//3
f  7//4 8//4 5//4
f  9//5 10//5 11//5
f  12//6 13//6 14//6
f  15//7 16//7 17//7
f  14//8 13//8 11//8
f  18//9 19//9 20//9
f  13//10 9//10 11//10
f  20//11 21//11 18//11
f  22//12 23//12 24//12
f  25//13 26//13 27//13
f  28//14 29//14 5//14
f  25//15 30//15 11//15
f  8//16 28//16 5//16
f  31//17 32//17 33//17
f  4//18 34//18 29//18
f  2//19 35//19 36//19
f  37//20 17//20 38//20
f  14//21 39//21 40//21
f  39//22 14//22 11//22
f  4//23 3//23 41//23
f  42//24 43//24 44//24
f  22//25 24//25 45//25
f  24//26 46//26 45//26
f  47//27 48//27 21//27
f  49//28 7//28 6//28
f  42//29 50//29 43//29
f  11//30 10//30 25//30
f  12//31 51//31 13//31
f  20//32 47//32 21//32
f  52//33 38//33 32//33
f  50//34 53//34 43//34
f  54//35 44//35 43//35
f  51//36 9//36 13//36
f  55//37 26//37 40//37
f  37//38 52//38 32//38
f  56//39 38//39 16//39
f  35//40 2//40 7//40
f  10//41 9//41 51//41
f  28//42 8//42 7//42
f  53//43 50//43 19//43
f  2//44 28//44 7//44
f  49//45 6//45 36//45
f  2//46 1//46 28//46
f  18//47 57//47 53//47
f  14//48 10//48 51//48
f  38//49 56//49 32//49
f  11//50 30//50 39//50
f  14//51 51//51 12//51
f  52//52 37//52 38//52
f  58//53 48//53 59//53
f  40//54 39//54 55//54
f  56//55 16//55 15//55
f  29//56 28//56 1//56
f  29//57 1//57 4//57
f  41//58 34//58 4//58
f  32//59 56//59 33//59
f  40//60 26//60 10//60
f  48//61 58//61 57//61
f  36//62 41//62 3//62
f  44//63 54//63 58//63
f  58//64 54//64 57//64
f  43//65 57//65 54//65
f  30//66 25//66 27//66
f  34//67 6//67 5//67
f  48//68 57//68 18//68
f  55//69 39//69 30//69
f  18//70 21//70 48//70
f  3//71 2//71 36//71
f  26//72 55//72 27//72
f  42//73 19//73 50//73
f  60//74 19//74 42//74
f  24//75 23//75 46//75
f  34//76 5//76 29//76
f  47//77 19//77 60//77
f  38//78 17//78 16//78
f  36//79 35//79 49//79
f  59//80 44//80 58//80
f  6//81 41//81 36//81
f  33//82 15//82 31//82
f  31//83 15//83 37//83
f  47//84 59//84 48//84
f  45//85 23//85 22//85
f  57//86 43//86 53//86
f  15//87 17//87 37//87
f  56//88 15//88 33//88
f  59//89 47//89 60//89
f  23//90 45//90 46//90
f  7//91 49//91 35//91
f  59//92 60//92 44//92
f  34//93 41//93 6//93
f  44//94 60//94 42//94
f  27//95 55//95 30//95
f  53//96 19//96 18//96
f  25//97 10//97 26//97
f  31//98 37//98 32//98
f  40//99 10//99 14//99
f  20//100 19//100 47//100

